<?xml version="1.0" encoding="utf-8"?>
<!-- Generator: Adobe Illustrator 16.0.0, SVG Export Plug-In . SVG Version: 6.00 Build 0)  -->
<!DOCTYPE svg PUBLIC "-//W3C//DTD SVG 1.1//EN" "http://www.w3.org/Graphics/SVG/1.1/DTD/svg11.dtd">
<svg version="1.1" id="Layer_1" xmlns="http://www.w3.org/2000/svg" xmlns:xlink="http://www.w3.org/1999/xlink" x="0px" y="0px"
	 width="46.936px" height="101.948px" viewBox="0 0 46.936 101.948" enable-background="new 0 0 46.936 101.948"
	 xml:space="preserve">
<path id="_x31_" sodipodi:nodetypes="csscssc" inkscape:connector-curvature="0" inkscape:export-ydpi="90" inkscape:export-xdpi="90" inkscape:export-filename="/Users/bearcott/Desktop/portfolio.rebuild/static/icons/coffee.png" fill="#FDD1AC" fill-opacity="0.3382" d="
	M2.398,66.718c0-26.718,12.663-35.751,15.989-51.327C20.677,4.667,13.522,0,13.522,0s34.333,11.637,33.365,34.287
	C46.394,45.824,42.614,49.417,35.344,74c-7,23.666,11.591,27.82,11.591,27.82s-16.906,0.555-28.391-5.052
	C4.677,90,2.398,81.052,2.398,66.718z"/>
<path id="_x31__1_" sodipodi:nodetypes="csscssc" inkscape:connector-curvature="0" inkscape:export-ydpi="90" inkscape:export-xdpi="90" inkscape:export-filename="/Users/bearcott/Desktop/portfolio.rebuild/static/icons/coffee.png" fill="#FDD1AC" fill-opacity="0.3382" d="
	M0.01,59c-0.435-23.319,7.312-23.456,13-38.333c4.333-11.333-1.667-19.333-1.667-19.333s35.591,0,32.333,36
	c-1.041,11.5-10.334,23-7.667,40c3.825,24.382,10.926,24.486,10.926,24.486s-16.658-0.688-29.993-9.636
	C4.131,83.586,0.277,73.332,0.01,59z"/>
</svg>
