<?xml version="1.0" encoding="utf-8"?>
<!-- Generator: Adobe Illustrator 16.0.0, SVG Export Plug-In . SVG Version: 6.00 Build 0)  -->
<!DOCTYPE svg PUBLIC "-//W3C//DTD SVG 1.1//EN" "http://www.w3.org/Graphics/SVG/1.1/DTD/svg11.dtd">
<svg version="1.1"
	 id="svg2" xmlns:inkscape="http://www.inkscape.org/namespaces/inkscape" xmlns:sodipodi="http://sodipodi.sourceforge.net/DTD/sodipodi-0.dtd" xmlns:svg="http://www.w3.org/2000/svg" xmlns:rdf="http://www.w3.org/1999/02/22-rdf-syntax-ns#" xmlns:cc="http://creativecommons.org/ns#" xmlns:dc="http://purl.org/dc/elements/1.1/" inkscape:version="0.48.5 r10040" sodipodi:docname="icons.svg"
	 xmlns="http://www.w3.org/2000/svg" xmlns:xlink="http://www.w3.org/1999/xlink" x="0px" y="0px" width="744.094px"
	 height="1052.363px" viewBox="0 0 744.094 1052.363" enable-background="new 0 0 744.094 1052.363" xml:space="preserve">
<sodipodi:namedview  id="namedview96" objecttolerance="10" bordercolor="#666666" borderopacity="1" pagecolor="#ffffff" gridtolerance="10" guidetolerance="10" showgrid="false" showguides="true" inkscape:zoom="3.5881154" inkscape:cx="495.60636" inkscape:cy="733.60631" inkscape:current-layer="g3188" inkscape:window-maximized="0" inkscape:window-y="0" inkscape:window-x="0" inkscape:guide-bbox="true" inkscape:window-width="1326" inkscape:window-height="735" inkscape:pageshadow="2" inkscape:pageopacity="0">
	</sodipodi:namedview>
<g id="g4" inkscape:version="0.48.5 r10040" sodipodi:docname="icons.svg">
	<defs>
		
		
			<inkscape:path-effect  id="path-effect4249" fuse_tolerance="0" prop_units="false" tang_offset="0" normal_offset="0" spacing="0" scale_y_rel="false" prop_scale="1" copytype="single_stretched" pattern="M 0,0 0,10 10,5 z" is_visible="true" effect="skeletal" vertical_pattern="false">
			</inkscape:path-effect>
		
			<inkscape:path-effect  id="path-effect4249-9" fuse_tolerance="0" prop_units="false" tang_offset="0" normal_offset="0" spacing="0" scale_y_rel="false" prop_scale="1" copytype="single_stretched" pattern="M 0,0 0,10 10,5 z" is_visible="true" effect="skeletal" vertical_pattern="false">
			</inkscape:path-effect>
	</defs>
	
		<sodipodi:namedview  id="base" bordercolor="#666666" borderopacity="1.0" pagecolor="#ffffff" showgrid="false" showguides="true" inkscape:zoom="2" inkscape:cx="259.90619" inkscape:cy="170.65512" inkscape:document-units="px" inkscape:snap-page="false" inkscape:current-layer="layer1-8" inkscape:window-maximized="1" inkscape:window-y="0" inkscape:window-x="0" inkscape:guide-bbox="true" inkscape:window-width="1440" inkscape:window-height="770" inkscape:pageshadow="2" inkscape:pageopacity="0.0">
		</sodipodi:namedview>
	<g id="layer1" inkscape:label="cup" inkscape:groupmode="layer">
		
			<path id="path3415" sodipodi:ry="5.5" sodipodi:rx="132.5" sodipodi:cy="628.86218" sodipodi:cx="289.5" sodipodi:type="arc" opacity="0.1148" enable-background="new    " d="
			M396.667,629.197c0,3.037-56.636,5.5-126.5,5.5s-126.5-2.463-126.5-5.5c0-3.039,56.636-5.5,126.5-5.5
			C340.031,623.697,396.667,626.158,396.667,629.197z"/>
		
			<linearGradient id="path2985_1_" gradientUnits="userSpaceOnUse" x1="266.3296" y1="164.5742" x2="265.8776" y2="121.5621" gradientTransform="matrix(1 0 -0.0105 0.9628 5.5395 460.4835)">
			<stop  offset="0" style="stop-color:#F6F6F6"/>
			<stop  offset="1" style="stop-color:#DCDCDC"/>
		</linearGradient>
		
			<path id="path2985" sodipodi:ry="12.014146" sodipodi:rx="131.82491" sodipodi:cy="611.4306" sodipodi:cx="289.40869" sodipodi:type="arc" inkscape:export-filename="/Users/bearcott/Desktop/portfolio.rebuild/static/icons/coffee.png" inkscape:export-xdpi="90" inkscape:export-ydpi="90" fill="url(#path2985_1_)" d="
			M401.968,609.473c-0.069,6.391-59.146,11.568-131.951,11.568c-72.805,0-131.769-5.18-131.699-11.568
			c0.07-6.387,59.146-11.564,131.951-11.564S402.039,603.084,401.968,609.473L401.968,609.473z"/>
		
			<linearGradient id="path4251_1_" gradientUnits="userSpaceOnUse" x1="374.6895" y1="69.4312" x2="375.1895" y2="172.9295" gradientTransform="matrix(1 0 0 1 0 441.3623)">
			<stop  offset="0" style="stop-color:#F6F6F6"/>
			<stop  offset="1" style="stop-color:#DCDCDC"/>
		</linearGradient>
		
			<path id="path4251" inkscape:connector-curvature="0" sodipodi:nodetypes="csccscc" inkscape:export-filename="/Users/bearcott/Desktop/portfolio.rebuild/static/icons/coffee.png" inkscape:export-xdpi="90" inkscape:export-ydpi="90" fill="url(#path4251_1_)" d="
			M346.508,519.682c0,0,40.093-23.185,55.484,5.284c12.992,24.038-51.851,71.667-51.851,71.667v-8.256
			c0,0,50.695-40.035,35.998-58.785c-9.577-12.22-40.292-2.643-40.292-2.643L346.508,519.682z"/>
		
			<linearGradient id="path3823_1_" gradientUnits="userSpaceOnUse" x1="274.0708" y1="69.9204" x2="274.5708" y2="173.4208" gradientTransform="matrix(1 0 0 1 0 441.3623)">
			<stop  offset="0" style="stop-color:#F6F6F6"/>
			<stop  offset="1" style="stop-color:#DCDCDC"/>
		</linearGradient>
		
			<path id="path3823" inkscape:connector-curvature="0" sodipodi:nodetypes="csscc" inkscape:export-filename="/Users/bearcott/Desktop/portfolio.rebuild/static/icons/coffee.png" inkscape:export-xdpi="90" inkscape:export-ydpi="90" fill="url(#path3823_1_)" d="
			M193.167,498.91c0,0-33.564,122.709,37.143,123.573c74.995,0.914,46.155,1.225,87.143,0.355
			c69.777-1.479,39.284-123.572,39.284-123.572L193.167,498.91z"/>
		
			<path id="path3765" inkscape:connector-curvature="0" sodipodi:nodetypes="cscsc" inkscape:export-filename="/Users/bearcott/Desktop/portfolio.rebuild/static/icons/coffee.png" inkscape:export-xdpi="90" inkscape:export-ydpi="90" fill="#E0E0E0" d="
			M137.631,610.516c0,0,1.607,22.682,132.321,22.682c130.754,0,132.543-23.307,132.543-23.307
			c-3.791,7.174-62.085,10.926-130.023,11.484C213.713,621.859,140.104,615.775,137.631,610.516z"/>
		
			<path id="path3825" inkscape:connector-curvature="0" sodipodi:nodetypes="sssssss" inkscape:export-filename="/Users/bearcott/Desktop/portfolio.rebuild/static/icons/coffee.png" inkscape:export-xdpi="90" inkscape:export-ydpi="90" fill="#FFFFFF" d="
			M137.588,610.523c-0.296-0.473,1.163-1.984,0.821-1.549c-4.038,5.162,64.649,11.926,135.076,12.279
			c66.851,0.338,130.46-8.195,128.251-12.213c-0.175-0.316,0.668,0.439,0.631,0.795c-0.537,5.051-50.329,13.332-129.071,13.312
			C194.554,623.127,141.629,616.934,137.588,610.523L137.588,610.523z"/>
		
			<path id="path3827" sodipodi:ry="7.2480993" sodipodi:rx="80.812202" sodipodi:cy="487.81317" sodipodi:cx="293.70184" sodipodi:type="arc" inkscape:export-filename="/Users/bearcott/Desktop/portfolio.rebuild/static/icons/coffee.png" inkscape:export-xdpi="90" inkscape:export-ydpi="90" fill="#CBCBCB" d="
			M354.827,498.878c0.009,4.003-36.166,7.248-80.797,7.249s-80.819-3.243-80.828-7.246c0-0.001,0-0.002,0-0.003
			c-0.008-4.003,36.166-7.249,80.797-7.25c44.631,0,80.82,3.244,80.828,7.247C354.827,498.876,354.827,498.877,354.827,498.878z"/>
		
			<path id="path3831" inkscape:connector-curvature="0" sodipodi:nodetypes="czczc" inkscape:export-filename="/Users/bearcott/Desktop/portfolio.rebuild/static/icons/coffee.png" inkscape:export-xdpi="90" inkscape:export-ydpi="90" fill="#553303" d="
			M212.185,503.553c0,0,43.262-1.959,63.482-1.867c20.22,0.093,57.768,2.225,57.768,2.225s-12.988,2.16-57.768,2.231
			C230.887,506.214,212.185,503.553,212.185,503.553z"/>
		
			<path id="path3889" inkscape:connector-curvature="0" sodipodi:nodetypes="csscssc" inkscape:export-filename="/Users/bearcott/Desktop/portfolio.rebuild/static/icons/coffee.png" inkscape:export-xdpi="90" inkscape:export-ydpi="90" fill="#FFD1AB" fill-opacity="0.3382" d="
			M244.891,470.037c0,0-18.669,5.632-23.265-6.153c-3.205-8.219,9.024-40.831,4.999-49.221c-2.012-4.193-12.498-4.614-12.498-4.614
			s19.804-7.499,24.034,0.384c5.734,10.687-6.729,41.339-2.5,52.875C237.462,468.217,244.891,470.037,244.891,470.037
			L244.891,470.037z"/>
		
			<path id="path3889-2" inkscape:connector-curvature="0" sodipodi:nodetypes="csscssc" inkscape:export-filename="/Users/bearcott/Desktop/portfolio.rebuild/static/icons/coffee.png" inkscape:export-xdpi="90" inkscape:export-ydpi="90" fill="#FFD1AB" fill-opacity="0.3382" d="
			M290.962,473.957c0,0-24.521,7.398-30.557-8.081c-4.209-10.795,11.853-53.63,6.566-64.649c-2.642-5.508-16.415-6.062-16.415-6.062
			s26.011-9.849,31.567,0.505c7.531,14.035-8.839,54.296-3.283,69.448C281.206,471.568,290.962,473.957,290.962,473.957z"/>
		
			<path id="path3889-4" inkscape:connector-curvature="0" sodipodi:nodetypes="csscssc" inkscape:export-filename="/Users/bearcott/Desktop/portfolio.rebuild/static/icons/coffee.png" inkscape:export-xdpi="90" inkscape:export-ydpi="90" fill="#FFD1AB" fill-opacity="0.3382" d="
			M332.105,470.8c0,0-19.429,5.861-24.21-6.401c-3.335-8.554,9.391-42.491,5.202-51.223c-2.094-4.362-13.006-4.802-13.006-4.802
			s20.608-7.803,25.011,0.4c5.967,11.118-7.003,43.018-2.602,55.021C324.375,468.908,332.105,470.8,332.105,470.8L332.105,470.8z"/>
		
			<image overflow="visible" enable-background="new    " width="380" height="400" id="image4309" xlink:href="2CDBD63403E290D7.png"  sodipodi:absref="/Users/bear/Public/nightstuffs/Portfolio/static/icons/2CDBD63403E290D7.png" transform="matrix(0.1217 -0.6981 0.6966 0.1214 520.2939 831.1055)">
		</image>
		
			<path id="path4389" inkscape:connector-curvature="0" sodipodi:nodetypes="cccccc" inkscape:export-filename="/Users/bearcott/Desktop/portfolio.rebuild/static/icons/storeBack.png" inkscape:export-xdpi="199.7692" inkscape:export-ydpi="199.7692" fill="#A37500" fill-opacity="0.1822" d="
			M567.07,243.417l30.848-1.972l-35.846-18.021l-191.05,0.436l-25.105,19.085L567.07,243.417z"/>
		
			<path id="path3169-3" inkscape:connector-curvature="0" sodipodi:nodetypes="cccccc" inkscape:export-filename="/Users/bearcott/Desktop/portfolio.rebuild/static/icons/storeBack.png" inkscape:export-xdpi="199.7692" inkscape:export-ydpi="199.7692" fill="#FFDAA4" d="
			M340.49,55.177l118.087-0.793l100.084,19.171l-1.693,169.827l-212.235-0.232L340.49,55.177z"/>
		
			<rect id="rect4238-8-6" x="352.157" y="193.128" inkscape:export-filename="/Users/bearcott/Desktop/portfolio.rebuild/static/icons/storeBack.png" inkscape:export-xdpi="199.7692" inkscape:export-ydpi="199.7692" fill="#C19D3D" fill-opacity="0.2489" width="192.458" height="5.657">
		</rect>
		
			<rect id="rect4236-6" x="353.218" y="89.053" inkscape:export-filename="/Users/bearcott/Desktop/portfolio.rebuild/static/icons/storeBack.png" inkscape:export-xdpi="199.7692" inkscape:export-ydpi="199.7692" fill="#B19F6A" width="192.459" height="101.6">
		</rect>
		
			<path id="path3173-2-6-6-2-3" inkscape:connector-curvature="0" sodipodi:nodetypes="cscccccc" inkscape:export-filename="/Users/bearcott/Desktop/portfolio.rebuild/static/icons/storeShade.png" inkscape:export-xdpi="199.7692" inkscape:export-ydpi="199.7692" fill="#856B20" fill-opacity="0.3022" d="
			M347.618,126.056c0.557,0.175-2.006,9.455,15.904,9.469c17.919,0.014,17.892-9.875,17.892-9.875l0.127-15.13l6.082-16.928
			l-33.994-0.062l-6.01,17.324L347.618,126.056L347.618,126.056z"/>
		
			<path id="path3173-2-6-6-4-2-5" inkscape:connector-curvature="0" sodipodi:nodetypes="cscccccc" inkscape:export-filename="/Users/bearcott/Desktop/portfolio.rebuild/static/icons/storeShade.png" inkscape:export-xdpi="199.7692" inkscape:export-ydpi="199.7692" fill="#856B20" fill-opacity="0.3022" d="
			M381.371,126.083c0.557,0.175-2.006,9.455,15.906,9.468c17.918,0.014,17.889-9.875,17.889-9.875l0.127-15.13l6.082-16.928
			l-33.992-0.062l-6.012,17.324V126.083L381.371,126.083z"/>
		
			<path id="path3173-2-6-6-5-4-6" inkscape:connector-curvature="0" sodipodi:nodetypes="cscccccc" inkscape:export-filename="/Users/bearcott/Desktop/portfolio.rebuild/static/icons/storeShade.png" inkscape:export-xdpi="199.7692" inkscape:export-ydpi="199.7692" fill="#856B20" fill-opacity="0.3022" d="
			M415.404,126.146c0.557,0.175-2.006,9.455,15.903,9.468c17.918,0.014,17.892-9.875,17.892-9.875l0.127-15.131l6.08-16.927
			l-33.992-0.062l-6.01,17.324V126.146L415.404,126.146z"/>
		
			<path id="path3173-2-6-6-4-1-9-1" inkscape:connector-curvature="0" sodipodi:nodetypes="cscccccc" inkscape:export-filename="/Users/bearcott/Desktop/portfolio.rebuild/static/icons/storeShade.png" inkscape:export-xdpi="199.7692" inkscape:export-ydpi="199.7692" fill="#856B20" fill-opacity="0.3022" d="
			M449.156,126.173c0.557,0.175-2.006,9.455,15.905,9.468c17.919,0.014,17.89-9.875,17.89-9.875l0.127-15.131l6.082-16.928
			l-33.993-0.062l-6.012,17.324L449.156,126.173L449.156,126.173z"/>
		
			<path id="path3173-2-6-6-7-7-9" inkscape:connector-curvature="0" sodipodi:nodetypes="cscccccc" inkscape:export-filename="/Users/bearcott/Desktop/portfolio.rebuild/static/icons/storeShade.png" inkscape:export-xdpi="199.7692" inkscape:export-ydpi="199.7692" fill="#856B20" fill-opacity="0.3022" d="
			M483.15,126.248c0.555,0.175-2.007,9.455,15.903,9.469c17.918,0.014,17.89-9.875,17.89-9.875l0.127-15.13l6.082-16.928
			l-33.992-0.062l-6.01,17.324V126.248L483.15,126.248z"/>
		
			<path id="path3173-2-6-6-4-8-7-5" inkscape:connector-curvature="0" sodipodi:nodetypes="cscccccc" inkscape:export-filename="/Users/bearcott/Desktop/portfolio.rebuild/static/icons/storeShade.png" inkscape:export-xdpi="199.7692" inkscape:export-ydpi="199.7692" fill="#856B20" fill-opacity="0.3022" d="
			M516.726,126.362c0.556,0.175-2.006,9.455,15.904,9.469c17.918,0.013,17.889-9.875,17.889-9.875l0.127-15.13l-1.342-16.839
			l-26.567-0.151l-6.011,17.324V126.362z"/>
		
			<path id="path3171-9" inkscape:connector-curvature="0" sodipodi:nodetypes="ccccc" inkscape:export-filename="/Users/bearcott/Desktop/portfolio.rebuild/static/icons/storeBack.png" inkscape:export-xdpi="199.7692" inkscape:export-ydpi="199.7692" fill="#F0C068" d="
			M332.858,73.542c6.625,3.665,181.176,5.84,232.85,5.713c3.74-22.811-1.965-31.184-1.965-31.184S447.167,30.519,340.679,28.508
			C328.055,46.261,330.156,62.452,332.858,73.542L332.858,73.542z"/>
		
			<path id="path3173-2-6-6-0" inkscape:connector-curvature="0" sodipodi:nodetypes="cscccccc" inkscape:export-filename="/Users/bearcott/Desktop/portfolio.rebuild/static/icons/storeShade.png" inkscape:export-xdpi="199.7692" inkscape:export-ydpi="199.7692" fill="#C9302C" d="
			M341.526,118.051c0.556,0.175-2.006,9.455,15.905,9.468c17.918,0.014,17.889-9.875,17.889-9.875l0.128-15.13l6.082-16.928
			l-33.993-0.062l-6.01,17.324V118.051z"/>
		
			<path id="path3173-2-6-6-4-9" inkscape:connector-curvature="0" sodipodi:nodetypes="cscccccc" inkscape:export-filename="/Users/bearcott/Desktop/portfolio.rebuild/static/icons/storeShade.png" inkscape:export-xdpi="199.7692" inkscape:export-ydpi="199.7692" fill="#FFFDEF" d="
			M375.278,118.079c0.558,0.175-2.006,9.455,15.906,9.468c17.918,0.014,17.89-9.875,17.89-9.875l0.127-15.131l6.082-16.928
			l-33.994-0.062l-6.011,17.324V118.079L375.278,118.079z"/>
		
			<path id="path3173-2-6-6-5-46" inkscape:connector-curvature="0" sodipodi:nodetypes="cscccccc" inkscape:export-filename="/Users/bearcott/Desktop/portfolio.rebuild/static/icons/storeShade.png" inkscape:export-xdpi="199.7692" inkscape:export-ydpi="199.7692" fill="#C9302C" d="
			M409.312,118.143c0.556,0.175-2.006,9.455,15.904,9.469c17.918,0.013,17.889-9.875,17.889-9.875l0.128-15.13l6.082-16.928
			l-33.992-0.062l-6.011,17.324V118.143z"/>
		
			<path id="path3173-2-6-6-4-1-7" inkscape:connector-curvature="0" sodipodi:nodetypes="cscccccc" inkscape:export-filename="/Users/bearcott/Desktop/portfolio.rebuild/static/icons/storeShade.png" inkscape:export-xdpi="199.7692" inkscape:export-ydpi="199.7692" fill="#FFFDEF" d="
			M443.064,118.169c0.557,0.175-2.007,9.455,15.905,9.469c17.918,0.013,17.89-9.875,17.89-9.875l0.127-15.13l6.082-16.928
			l-33.994-0.062l-6.01,17.324V118.169L443.064,118.169z"/>
		
			<path id="path3173-2-6-6-7-8" inkscape:connector-curvature="0" sodipodi:nodetypes="cscccccc" inkscape:export-filename="/Users/bearcott/Desktop/portfolio.rebuild/static/icons/storeShade.png" inkscape:export-xdpi="199.7692" inkscape:export-ydpi="199.7692" fill="#C9302C" d="
			M477.056,118.244c0.558,0.175-2.006,9.455,15.906,9.468c17.918,0.014,17.889-9.875,17.889-9.875l0.127-15.13l6.082-16.928
			l-33.991-0.062l-6.013,17.324V118.244L477.056,118.244z"/>
		
			<path id="path4195-4" inkscape:connector-curvature="0" sodipodi:nodetypes="cccccc" inkscape:export-filename="/Users/bearcott/Desktop/portfolio.rebuild/static/icons/storeShade.png" inkscape:export-xdpi="199.7692" inkscape:export-ydpi="199.7692" fill="#FBF09F" d="
			M543.917,118.926l6.719-6.099l0.086-15.304l0.068-12.009l-9.877,17.678L543.917,118.926z"/>
		
			<path id="path3173-2-6-6-4-8-6" inkscape:connector-curvature="0" sodipodi:nodetypes="cscccccc" inkscape:export-filename="/Users/bearcott/Desktop/portfolio.rebuild/static/icons/storeShade.png" inkscape:export-xdpi="199.7692" inkscape:export-ydpi="199.7692" fill="#FFFDEF" d="
			M510.81,118.271c0.558,0.175-2.006,9.455,15.904,9.468c17.918,0.014,17.891-9.875,17.891-9.875l0.128-15.13l6.081-16.928
			l-33.993-0.062l-6.011,17.324V118.271L510.81,118.271z"/>
		
			<rect id="rect4238-3" x="348.269" y="188.179" inkscape:export-filename="/Users/bearcott/Desktop/portfolio.rebuild/static/icons/storeBack.png" inkscape:export-xdpi="199.7692" inkscape:export-ydpi="199.7692" fill="#F1EEE6" width="201.176" height="7.778">
		</rect>
		
			<g id="g3188" transform="matrix(0.82134725,0.05037046,-0.06571636,0.62954852,98.286669,-0.20222993)" inkscape:export-filename="/Users/bearcott/Desktop/portfolio.rebuild/static/icons/man.png" inkscape:export-xdpi="199.7692" inkscape:export-ydpi="199.7692">
			<path id="path3184" inkscape:connector-curvature="0" sodipodi:nodetypes="cscc" fill="#F6F6F6" d="M470.981,501.421
				c0,0-9.266-57.772,31.514-62.013c48.886-5.084,46.142,55.724,46.142,55.724L470.981,501.421z"/>
			
				<path id="path3959" sodipodi:ry="24.925514" sodipodi:rx="22.627417" sodipodi:cy="399.1723" sodipodi:cx="522.19836" sodipodi:type="arc" fill="#FFE6D4" d="
				M522.742,417.353c0.009,13.766-10.115,24.934-22.613,24.943c-12.497,0.009-22.634-11.142-22.643-24.909
				c0-0.011,0.001-0.023,0.001-0.034c-0.009-13.766,10.115-24.933,22.611-24.942c12.497-0.01,22.634,11.142,22.643,24.908
				C522.742,417.331,522.743,417.342,522.742,417.353z"/>
			
				<path id="path3964" sodipodi:ry="4.7729707" sodipodi:rx="3.5355339" sodipodi:cy="383.61594" sodipodi:cx="508.40979" sodipodi:type="arc" fill="#383838" d="
				M510.19,409.885c0.004,2.636-1.575,4.778-3.527,4.785c-1.953,0.007-3.539-2.124-3.545-4.76c-0.001-0.008,0-0.016-0.001-0.025
				c-0.004-2.636,1.575-4.778,3.526-4.785c1.953-0.007,3.54,2.125,3.545,4.761C510.19,409.869,510.189,409.876,510.19,409.885z"/>
			
				<path id="path3964-6" sodipodi:ry="4.7729707" sodipodi:rx="3.5355339" sodipodi:cy="383.61594" sodipodi:cx="508.40979" sodipodi:type="arc" fill="#383838" d="
				M495.98,411.021c0.005,2.636-1.573,4.779-3.526,4.785c-1.952,0.006-3.54-2.125-3.544-4.761c-0.001-0.008,0-0.016-0.001-0.024
				c-0.005-2.636,1.575-4.779,3.526-4.785c1.953-0.007,3.54,2.125,3.545,4.761C495.981,411.005,495.98,411.013,495.98,411.021z"/>
			<path id="path3984" inkscape:connector-curvature="0" fill="none" stroke="#4A4A4A" stroke-linecap="round" d="M490.681,421.978
				c0,0,11.578,4.393,19.618-1.214"/>
			<path id="path4346" inkscape:connector-curvature="0" sodipodi:nodetypes="cscsssc" fill="#434343" d="M483.308,404.635
				c0,0,4.133-8.858,7.275-13.121c3.145-4.265,16.068-0.031,16.068-0.031s5.4,15.124,10.059,11.986
				c4.226-2.846-1.649-10.903-5.927-13.57c-5.554-3.463-23.695-3.37-28.576,5.798C478.373,402.894,483.308,404.635,483.308,404.635z
				"/>
			<path id="path4348" inkscape:connector-curvature="0" sodipodi:nodetypes="cccccc" fill="#E9E9E9" d="M486.462,394.232
				l12.71,3.999l18.655-3.999l-4.428-14.192l-23.466-2.888L486.462,394.232z"/>
			<path id="path4350" inkscape:connector-curvature="0" sodipodi:nodetypes="ccccc" fill="#F9F9F9" d="M497.454,398.119
				l-0.506-16.011l-9.501-5.008l-3.134,17.482L497.454,398.119z"/>
		</g>
	</g>
</g>
<g id="Layer_4">
	<g id="g4865" transform="translate(63.056655,738.79076)" enable-background="new    ">
		<g id="layer1-8" transform="translate(-68.52228,-743.64792)" inkscape:label="cup">
			
				<rect id="rect4299-3" x="49.424" y="683.24" inkscape:export-filename="/Users/bearcott/Desktop/portfolio.rebuild/static/icons/wood.jpg.png" inkscape:export-xdpi="90" inkscape:export-ydpi="90" fill="#EAC68E" width="437.857" height="132.857">
			</rect>
			
				<path id="rect4320-6" inkscape:connector-curvature="0" sodipodi:nodetypes="czcczscc" inkscape:export-filename="/Users/bearcott/Desktop/portfolio.rebuild/static/icons/wood.jpg.png" inkscape:export-xdpi="90" inkscape:export-ydpi="90" fill="#E6BC78" d="
				M49.453,711.09c0,0,366.104-1.885,399.058-0.719c32.957,1.166,38.769,0.754,38.769,0.754v-10.967c0,0-20.109,0.332-74.742,0.938
				c-54.633,0.604-205.595,2.827-291.496,2.071c-28.843-0.254-71.625-3.021-71.625-3.021L49.453,711.09z"/>
			
				<path id="rect4320-2-30" inkscape:connector-curvature="0" sodipodi:nodetypes="ccccccc" inkscape:export-filename="/Users/bearcott/Desktop/portfolio.rebuild/static/icons/wood.jpg.png" inkscape:export-xdpi="90" inkscape:export-ydpi="90" fill="#E5B875" d="
				M49.411,810.783l245.351,1.25l192.493-1.238l0.041-12.385l-192.534-3.25l-245.354,3.25L49.411,810.783z"/>
			
				<path id="rect4320-2-3-1" inkscape:connector-curvature="0" sodipodi:nodetypes="cccccc" inkscape:export-filename="/Users/bearcott/Desktop/portfolio.rebuild/static/icons/wood.jpg.png" inkscape:export-xdpi="90" inkscape:export-ydpi="90" fill="#E0B06C" d="
				M49.411,791.785c144.872-0.354,289.117-0.922,437.82,0l0.02-7.07l-183.989,1.25l-253.854-1.25L49.411,791.785z"/>
			
				<path id="rect4320-2-3-8-2" inkscape:connector-curvature="0" sodipodi:nodetypes="czccscc" inkscape:export-filename="/Users/bearcott/Desktop/portfolio.rebuild/static/icons/wood.jpg.png" inkscape:export-xdpi="90" inkscape:export-ydpi="90" fill="#E7C082" d="
				M49.411,774.448c0,0,222.651-2.402,295.62-2.121c72.968,0.283,142.246,2.121,142.246,2.121l-0.015-22.627
				c0,0-249.924,5.805-374.853,3.182c-21.022-0.44-63.001-3.182-63.001-3.182L49.411,774.448z"/>
			
				<path id="rect4320-2-3-8-7-9" inkscape:connector-curvature="0" sodipodi:nodetypes="czccczcc" inkscape:export-filename="/Users/bearcott/Desktop/portfolio.rebuild/static/icons/wood.jpg.png" inkscape:export-xdpi="90" inkscape:export-ydpi="90" fill="#E0B06C" d="
				M49.44,738.301c0,0-2.32,0.216,54.973-0.764c57.292-0.977,320.549,2.783,320.549,2.783l62.254-2.076l0.064-7.07
				c0,0-335.715-3.487-383.221-1.768c-47.506,1.72-54.622,1.768-54.622,1.768L49.44,738.301z"/>
			
				<path id="rect4398-1" inkscape:connector-curvature="0" sodipodi:nodetypes="czsccszcc" inkscape:export-filename="/Users/bearcott/Desktop/portfolio.rebuild/static/icons/wood.jpg.png" inkscape:export-xdpi="90" inkscape:export-ydpi="90" fill="#E0B06C" d="
				M49.445,714.489c0,0,8.617-0.326,53.692,0.41c45.076,0.735,176.754-0.135,274.374-0.959c60.4-0.51,109.738,0.549,109.738,0.549v2
				c0,0-67.727-0.379-109.488-0.006c-96.538,0.865-222.881,1.604-273.813,0.77c-50.932-0.838-54.503-0.764-54.503-0.764V714.489z"/>
			
				<path id="rect4398-7-4-6" inkscape:connector-curvature="0" sodipodi:nodetypes="ccccccc" inkscape:export-filename="/Users/bearcott/Desktop/portfolio.rebuild/static/icons/wood.jpg.png" inkscape:export-xdpi="90" inkscape:export-ydpi="90" fill="#CD8849" d="
				M49.456,803l111.315,0.025L487.283,803v2l-327.322-0.828L49.456,805V803z"/>
			
				<path id="rect4398-7-4-7-8" inkscape:connector-curvature="0" sodipodi:nodetypes="csscccccc" inkscape:export-filename="/Users/bearcott/Desktop/portfolio.rebuild/static/icons/wood.jpg.png" inkscape:export-xdpi="90" inkscape:export-ydpi="90" fill="#CD8849" d="
				M49.456,721.037c0,0,45.374,0.646,68.062,0.75c91.41,0.41,251.112,0.549,327.276,0.205c26.533-0.119,42.488-0.955,42.488-0.955v2
				l-42.738,0.137l-326.526,1.113l-68.562-1.25V721.037z"/>
			
				<path id="rect4320-2-3-85-5" inkscape:connector-curvature="0" sodipodi:nodetypes="cccccc" inkscape:export-filename="/Users/bearcott/Desktop/portfolio.rebuild/static/icons/wood.jpg.png" inkscape:export-xdpi="90" inkscape:export-ydpi="90" fill="#E0B06C" d="
				M49.411,693.869c144.872-0.356,289.117-0.922,437.82,0l0.063-7.072l-184.034,1.25l-253.854-1.25L49.411,693.869z"/>
			
				<rect id="rect4238-0" x="49.423" y="683.254" opacity="0.4" fill="#FFFFFF" enable-background="new    " width="437.868" height="25.591"/>
			
				<rect id="rect4240-8" x="49.428" y="707.313" opacity="0.7" fill="#FFFFFF" enable-background="new    " width="437.841" height="3"/>
		</g>
		<g id="layer2" transform="translate(-0.150126,-0.8571487)" inkscape:label="Layer">
		</g>
	</g>
	<g id="g4865_1_" transform="translate(63.056655,738.79076)" enable-background="new    ">
		<g id="layer1-8_1_" transform="translate(-68.52228,-743.64792)" inkscape:label="cup">
			
				<rect id="rect4299-3_1_" x="49.379" y="795.344" inkscape:export-filename="/Users/bearcott/Desktop/portfolio.rebuild/static/icons/wood.jpg.png" inkscape:export-xdpi="90" inkscape:export-ydpi="90" fill="#EAC68E" width="437.857" height="132.856">
			</rect>
			
				<path id="rect4320-6_1_" inkscape:connector-curvature="0" sodipodi:nodetypes="czcczscc" inkscape:export-filename="/Users/bearcott/Desktop/portfolio.rebuild/static/icons/wood.jpg.png" inkscape:export-xdpi="90" inkscape:export-ydpi="90" fill="#E6BC78" d="
				M49.475,857.671c0,0,366.103-1.885,399.058-0.719c32.957,1.166,38.768,0.754,38.768,0.754V846.74c0,0-20.108,0.332-74.741,0.938
				c-54.633,0.605-205.595,2.828-291.497,2.072c-28.843-0.254-71.625-3.021-71.625-3.021L49.475,857.671z"/>
			
				<path id="rect4320-2-30_1_" inkscape:connector-curvature="0" sodipodi:nodetypes="ccccccc" inkscape:export-filename="/Users/bearcott/Desktop/portfolio.rebuild/static/icons/wood.jpg.png" inkscape:export-xdpi="90" inkscape:export-ydpi="90" fill="#E5B875" d="
				M49.366,922.886l245.351,1.25l192.493-1.238l0.041-12.385l-192.534-3.25l-245.354,3.25L49.366,922.886z"/>
			
				<path id="rect4320-2-3-1_1_" inkscape:connector-curvature="0" sodipodi:nodetypes="cccccc" inkscape:export-filename="/Users/bearcott/Desktop/portfolio.rebuild/static/icons/wood.jpg.png" inkscape:export-xdpi="90" inkscape:export-ydpi="90" fill="#E0B06C" d="
				M49.366,903.888c144.872-0.355,289.117-0.923,437.82,0l0.02-7.07l-183.989,1.25l-253.854-1.25L49.366,903.888z"/>
			
				<path id="rect4320-2-3-8-2_1_" inkscape:connector-curvature="0" sodipodi:nodetypes="czccscc" inkscape:export-filename="/Users/bearcott/Desktop/portfolio.rebuild/static/icons/wood.jpg.png" inkscape:export-xdpi="90" inkscape:export-ydpi="90" fill="#E7C082" d="
				M49.366,886.55c0,0,222.651-2.401,295.62-2.12c72.968,0.282,142.246,2.12,142.246,2.12l-0.015-22.627
				c0,0-249.925,5.806-374.853,3.183c-21.022-0.441-63.001-3.183-63.001-3.183L49.366,886.55z"/>
			
				<path id="rect4320-2-3-8-7-9_1_" inkscape:connector-curvature="0" sodipodi:nodetypes="czccczcc" inkscape:export-filename="/Users/bearcott/Desktop/portfolio.rebuild/static/icons/wood.jpg.png" inkscape:export-xdpi="90" inkscape:export-ydpi="90" fill="#E0B06C" d="
				M49.371,833.889c0,0-2.32,0.215,54.973-0.765c57.292-0.977,320.55,2.783,320.55,2.783l62.254-2.076l0.063-7.069
				c0,0-335.716-3.488-383.222-1.769s-54.622,1.769-54.622,1.769L49.371,833.889z"/>
			
				<path id="rect4398-7-4-6_1_" inkscape:connector-curvature="0" sodipodi:nodetypes="ccccccc" inkscape:export-filename="/Users/bearcott/Desktop/portfolio.rebuild/static/icons/wood.jpg.png" inkscape:export-xdpi="90" inkscape:export-ydpi="90" fill="#CD8849" d="
				M49.411,915.103l111.315,0.024l326.511-0.024v2l-327.322-0.828L49.41,917.103L49.411,915.103L49.411,915.103z"/>
			
				<path id="rect4398-7-4-7-8_1_" inkscape:connector-curvature="0" sodipodi:nodetypes="csscccccc" inkscape:export-filename="/Users/bearcott/Desktop/portfolio.rebuild/static/icons/wood.jpg.png" inkscape:export-xdpi="90" inkscape:export-ydpi="90" fill="#CD8849" d="
				M49.372,814.473c0,0,45.374,0.646,68.062,0.75c91.454,0.409,251.049,0.549,327.276,0.205c26.533-0.119,42.488-0.955,42.488-0.955
				v2l-42.738,0.137l-326.526,1.113l-68.562-1.25V814.473z"/>
			
				<path id="rect4320-2-3-85-5_1_" inkscape:connector-curvature="0" sodipodi:nodetypes="cccccc" inkscape:export-filename="/Users/bearcott/Desktop/portfolio.rebuild/static/icons/wood.jpg.png" inkscape:export-xdpi="90" inkscape:export-ydpi="90" fill="#E0B06C" d="
				M49.366,805.972c144.872-0.357,289.117-0.923,437.82,0l0.063-7.072l-184.034,1.25L49.364,798.9L49.366,805.972z"/>
		</g>
		<g id="layer2_1_" transform="translate(-0.150126,-0.8571487)" inkscape:label="Layer">
		</g>
	</g>
</g>
<g id="Layer_3">
</g>
</svg>
