<?xml version="1.0" encoding="utf-8"?>
<!-- Generator: Adobe Illustrator 16.0.0, SVG Export Plug-In . SVG Version: 6.00 Build 0)  -->
<!DOCTYPE svg PUBLIC "-//W3C//DTD SVG 1.1//EN" "http://www.w3.org/Graphics/SVG/1.1/DTD/svg11.dtd">
<svg version="1.1" xmlns="http://www.w3.org/2000/svg" xmlns:xlink="http://www.w3.org/1999/xlink" x="0px" y="0px"
	 width="567.333px" height="86.417px" viewBox="0 0 567.333 86.417" enable-background="new 0 0 567.333 86.417"
	 xml:space="preserve">
<g id="Layer_1">
	<g id="Layer_1_1_">
		<path fill="#0196BD" d="M567.333,86.417H0v-52c0,0,45,1.083,49.75-21.167C62,32.5,78.253,34.48,95.25,36
			c32.405,2.897,50-18,58.5-36c8,16.75,24.5,26,46.25,26.5c14.246,0.328,42.25-1.25,50.667-14.75
			C273,38.083,308.25,36.25,308.25,36.25s42.416,2.833,52.75-24.833c17.998,18,80.332,40.958,117.666-3.708
			c16,29,88.666,26.708,88.666,26.708V86.417L567.333,86.417z"/>
	</g>
	<g id="Layer_2" display="none">
		<rect y="52.417" display="inline" fill="#00AAD6" width="567.333" height="52"/>
	</g>
</g>
<g id="Layer_2_1_">
	<g id="Layer_1_2_">
		<path fill="#446FA8" d="M0,85.417v-52c0,0,72.666,2.292,88.666-26.708C126,51.375,188.334,28.417,206.333,10.417
			c10.334,27.666,52.75,24.833,52.75,24.833s35.25,1.833,57.584-24.5c8.416,13.5,36.42,15.078,50.666,14.75
			c21.75-0.5,38.25-9.75,46.25-26.5c8.5,18,26.096,38.897,58.5,36c16.998-1.52,33.25-3.5,45.5-22.75
			c4.75,22.25,49.75,21.167,49.75,21.167v52H0L0,85.417z"/>
	</g>
</g>
</svg>
