<?xml version="1.0" encoding="utf-8"?>
<!-- Generator: Adobe Illustrator 16.0.0, SVG Export Plug-In . SVG Version: 6.00 Build 0)  -->
<!DOCTYPE svg PUBLIC "-//W3C//DTD SVG 1.1//EN" "http://www.w3.org/Graphics/SVG/1.1/DTD/svg11.dtd">
<svg version="1.1" xmlns="http://www.w3.org/2000/svg" xmlns:xlink="http://www.w3.org/1999/xlink" x="0px" y="0px"
	 width="567.333px" height="86.417px" viewBox="0 0 567.333 86.417" enable-background="new 0 0 567.333 86.417"
	 xml:space="preserve">
<g id="Layer_1" display="none">
	<g id="Layer_1_1_" display="inline">
		<path fill="#0196BD" d="M567.333,86.417H0v-52c0,0,45,1.083,49.75-21.167C62,32.5,78.253,34.48,95.25,36
			c32.405,2.897,50-18,58.5-36c8,16.75,24.5,26,46.25,26.5c14.246,0.328,42.25-1.25,50.667-14.75
			C273,38.083,308.25,36.25,308.25,36.25s42.416,2.833,52.75-24.833c17.998,18,80.332,40.958,117.666-3.708
			c16,29,88.666,26.708,88.666,26.708V86.417L567.333,86.417z"/>
	</g>
	<g id="Layer_2">
		<rect y="52.417" display="inline" fill="#00AAD6" width="567.333" height="52"/>
	</g>
</g>
<g id="Layer_2_1_">
	<g id="Layer_1_2_">
		<path fill="#008AAA" d="M0,85.417c0,0-29.166-53.292,0-52s58.166-5.708,71.666-28.708c12.5,23.5,34.821,27.493,66,29.5
			s73-8,83.5-29.5c12.5,22,34,31.5,68.5,31.5s61-8,74-31.5c12,26,42.001,30.082,67.5,30s54-4.5,65.5-30c12,26,40.5,29,70.666,28.708
			c30.918-0.299,0,52,0,52H0L0,85.417z"/>
	</g>
</g>
<g id="Layer_3" display="none">
	<path display="inline" fill="#0196BD" d="M567.703,85.417H0.371c0,0-30.917-52.288,0-52c31.296,0.291,58.666-2.709,70.666-28.709
		c11.5,25.5,40.001,29.918,65.5,30s55.5-4,67.5-30c13,23.5,39.5,31.5,74,31.5s56-9.5,68.5-31.5c10.5,21.5,52.321,31.507,83.5,29.5
		s53.5-6,66-29.5c13.5,23,42.472,28.903,71.666,28.709C599.167,33.208,567.703,85.417,567.703,85.417L567.703,85.417z"/>
</g>
</svg>
