<?xml version="1.0" encoding="utf-8"?>
<!-- Generator: Adobe Illustrator 16.0.0, SVG Export Plug-In . SVG Version: 6.00 Build 0)  -->
<!DOCTYPE svg PUBLIC "-//W3C//DTD SVG 1.1//EN" "http://www.w3.org/Graphics/SVG/1.1/DTD/svg11.dtd">
<svg version="1.1" id="Layer_1" xmlns="http://www.w3.org/2000/svg" xmlns:xlink="http://www.w3.org/1999/xlink" x="0px" y="0px"
	 width="792px" height="612px" viewBox="0 0 792 612" enable-background="new 0 0 792 612" xml:space="preserve">
<g id="Layer_1_2_">
	<path fill="#446FA8" d="M85,143.418V91.417c0,0,72.666,2.292,88.666-26.708c37.334,44.666,99.668,21.708,117.666,3.708
		c10.334,27.666,52.75,24.833,52.75,24.833s35.25,1.833,57.583-24.5c8.416,13.5,36.42,15.078,50.666,14.75
		c21.75-0.5,38.25-9.75,46.25-26.5c8.5,18,26.096,38.897,58.5,36c16.998-1.52,33.25-3.5,45.5-22.75
		c4.75,22.25,49.75,21.167,49.75,21.167v52.001H85L85,143.418z"/>
	<g id="Layer_1_3_">
		<path fill="#0196BD" d="M652.332,172.418H85v-52.001c0,0,45,1.083,49.75-21.167c12.25,19.25,28.503,21.23,45.5,22.75
			c32.405,2.897,50-18,58.5-36c8,16.75,24.5,26,46.25,26.5c14.246,0.328,42.25-1.25,50.667-14.75
			c22.333,26.333,57.583,24.5,57.583,24.5s42.416,2.833,52.75-24.833c17.998,18,80.332,40.958,117.666-3.708
			c16,29,88.666,26.708,88.666,26.708V172.418L652.332,172.418z"/>
	</g>
</g>
</svg>
