<svg id="Layer_1" data-name="Layer 1" xmlns="http://www.w3.org/2000/svg" xmlns:xlink="http://www.w3.org/1999/xlink" viewBox="0 0 266.16398 139.25435"><defs><style>.cls-1{fill:url(#linear-gradient);}.cls-2{fill:url(#linear-gradient-2);}.cls-3{fill:url(#linear-gradient-3);}.cls-4{fill:#e0e0e0;}.cls-5{fill:#fff;}.cls-6{fill:url(#linear-gradient-4);}</style><linearGradient id="linear-gradient" x1="466.64306" y1="-558.40489" x2="466.19094" y2="-515.38847" gradientTransform="matrix(1, 0, 0.0105, -0.9628, -328.18479, -412.66166)" gradientUnits="userSpaceOnUse"><stop offset="0" stop-color="#f6f6f6"/><stop offset="1" stop-color="#dcdcdc"/></linearGradient><linearGradient id="linear-gradient-2" x1="562.90184" y1="-420.4142" x2="563.40183" y2="-523.91176" gradientTransform="matrix(1, 0, 0, -1, -325.76169, -403.56255)" xlink:href="#linear-gradient"/><linearGradient id="linear-gradient-3" x1="462.28563" y1="-420.90483" x2="462.78555" y2="-524.4052" gradientTransform="matrix(1, 0, 0, -1, -325.76169, -403.56255)" xlink:href="#linear-gradient"/><linearGradient id="linear-gradient-4" x1="55.69192" y1="5.08536" x2="218.89491" y2="5.08536" gradientUnits="userSpaceOnUse"><stop offset="0" stop-color="#efefef"/><stop offset="1" stop-color="#b5b5b5"/></linearGradient></defs><title>coffee</title><path id="path2985" class="cls-1" d="M264.41992,115.53336c-.068,6.389-59.146,11.566-131.951,11.566s-131.769-5.179-131.699-11.566c.07-6.389,59.146-11.568,131.951-11.568,72.804,0,131.769,5.18,131.699,11.568Z"/><path id="path4251" class="cls-2" d="M208.95891,25.74036s40.094-23.185,55.484,5.284c12.994,24.035-51.853,71.666-51.853,71.666v-8.257s50.695-40.034,35.998-58.785c-9.575-12.221-40.291-2.644-40.291-2.644Z"/><path id="path3823" class="cls-3" d="M55.61891,4.96936s-33.564,122.709,37.143,123.571c74.996.914,46.155,1.225,87.143.357,69.778-1.479,39.286-123.572,39.286-123.572Z"/><path id="path3765" class="cls-4" d="M.08291,116.57535s1.607,22.679,132.321,22.679c130.753,0,132.542-23.304,132.542-23.304-3.791,7.172-62.085,10.924-130.022,11.482C76.16491,127.91736,2.55591,121.83436.08291,116.57535Z"/><path id="path3825" class="cls-5" d="M.03991,116.58036c-.296-.47,1.163-1.984.821-1.547-4.038,5.162,64.649,11.924,135.077,12.28,66.851.338,130.461-8.196,128.25-12.215-.174-.313.67.438.631.795-.536,5.054-50.327,13.333-129.069,13.312-78.745-.016-131.669-6.212-135.71-12.625Z"/><path id="path3827" class="cls-6" d="M218.89491,5.08536c0,2.80859-36.533,5.08536-81.601,5.08536s-81.602-2.27677-81.602-5.08536S92.22592,0,137.29391,0C182.3609,0,218.89491,2.27676,218.89491,5.08536Z"/></svg>