<svg id="Layer_1" data-name="Layer 1" xmlns="http://www.w3.org/2000/svg" xmlns:xlink="http://www.w3.org/1999/xlink" viewBox="0 0 218.50597 129.41014"><defs><style>.cls-1{fill:url(#linear-gradient);}.cls-2{fill:url(#linear-gradient-2);}.cls-3{fill:url(#linear-gradient-3);}</style><linearGradient id="linear-gradient" x1="562.90184" y1="-420.4142" x2="563.40183" y2="-523.91176" gradientTransform="matrix(1, 0, 0, -1, -325.76169, -403.56255)" gradientUnits="userSpaceOnUse"><stop offset="0" stop-color="#f6f6f6"/><stop offset="1" stop-color="#dcdcdc"/></linearGradient><linearGradient id="linear-gradient-2" x1="462.28563" y1="-420.90483" x2="462.78555" y2="-524.4052" xlink:href="#linear-gradient"/><linearGradient id="linear-gradient-3" x1="55.69192" y1="5.08536" x2="218.89491" y2="5.08536" gradientUnits="userSpaceOnUse"><stop offset="0" stop-color="#efefef"/><stop offset="1" stop-color="#b5b5b5"/></linearGradient></defs><title>cup</title><path id="path4251" class="cls-1" d="M208.95891,25.74036s40.094-23.185,55.484,5.284c12.994,24.035-51.853,71.666-51.853,71.666v-8.257s50.695-40.034,35.998-58.785c-9.575-12.221-40.291-2.644-40.291-2.644Z" transform="translate(-47.65801)"/><path id="path3823" class="cls-2" d="M55.61891,4.96936s-33.564,122.709,37.143,123.571c74.996.914,46.155,1.225,87.143.357,69.778-1.479,39.286-123.572,39.286-123.572Z" transform="translate(-47.65801)"/><path id="path3827" class="cls-3" d="M218.89491,5.08536c0,2.80859-36.533,5.08536-81.601,5.08536s-81.602-2.27677-81.602-5.08536S92.22592,0,137.29391,0C182.3609,0,218.89491,2.27676,218.89491,5.08536Z" transform="translate(-47.65801)"/></svg>