<svg id="Layer_1" data-name="Layer 1" xmlns="http://www.w3.org/2000/svg" viewBox="0 0 264.94589 24.29927"><defs><style>.cls-1{fill:#e0e0e0;}.cls-2{fill:#fff;}</style></defs><title>plateA</title><path id="path3765" class="cls-1" d="M.08291,116.57535s1.607,22.679,132.321,22.679c130.753,0,132.542-23.304,132.542-23.304-3.791,7.172-62.085,10.924-130.022,11.482C76.16491,127.91736,2.55591,121.83436.08291,116.57535Z" transform="translate(0 -114.95508)"/><path id="path3825" class="cls-2" d="M.03991,116.58036c-.296-.47,1.163-1.984.821-1.547-4.038,5.162,64.649,11.924,135.077,12.28,66.851.338,130.461-8.196,128.25-12.215-.174-.313.67.438.631.795-.536,5.054-50.327,13.333-129.069,13.312-78.745-.016-131.669-6.212-135.71-12.625Z" transform="translate(0 -114.95508)"/></svg>