<?xml version="1.0" encoding="utf-8"?>
<!-- Generator: Adobe Illustrator 16.0.0, SVG Export Plug-In . SVG Version: 6.00 Build 0)  -->
<!DOCTYPE svg PUBLIC "-//W3C//DTD SVG 1.0//EN" "http://www.w3.org/TR/2001/REC-SVG-20010904/DTD/svg10.dtd">
<svg version="1.0" id="Layer_1" xmlns="http://www.w3.org/2000/svg" xmlns:xlink="http://www.w3.org/1999/xlink" x="0px" y="0px"
	 width="216.566px" height="172.841px" viewBox="0 0 216.566 172.841" enable-background="new 0 0 216.566 172.841"
	 xml:space="preserve">
<g id="main">
	<g id="logo">
		<g>
			<path fill="none" stroke="#DF2525" stroke-width="3" stroke-linecap="round" stroke-miterlimit="10" d="M47.226,121.547
				c0.7-0.816,11.232-12.521-1.082-24.357c-9.829-9.447-27.126-3.673-34.445,5.334c-14.467,17.807-13.849,42.511,3.822,56.21
				c24.628,19.092,54.086,11.972,70.492-5.569c12.066-12.901,37.164-44.119,57.168-67.622c16.438-19.319,23.872-43.175,0.866-69.844
				C128.418-2.416,88.972-3.527,73.352,14.266c-19.449,22.152-20.743,46.921-1.166,69.839
				c32.163,37.648,41.755,51.184,57.904,68.848c21.112,23.098,49.729,21.899,70.514,5.271c23.253-18.604,14.688-46.104,0.646-57.876
				c-13.648-11.441-38.017-14.244-52.87,4.16c-23.481,29.092-56.218,66.199-56.218,66.199"/>

				<line fill="none" stroke="#DF2525" stroke-width="3" stroke-linecap="round" stroke-miterlimit="10" x1="113.179" y1="171.341" x2="144.663" y2="134.35"/>
		</g>
	</g>
</g>
</svg>
