<?xml version="1.0" encoding="utf-8"?>
<!-- Generator: Adobe Illustrator 19.2.0, SVG Export Plug-In . SVG Version: 6.00 Build 0)  -->
<svg version="1.1" id="Layer_1" xmlns="http://www.w3.org/2000/svg" xmlns:xlink="http://www.w3.org/1999/xlink" x="0px" y="0px"
	 viewBox="0 0 216.6 172.8" style="enable-background:new 0 0 216.6 172.8;" xml:space="preserve">
<style type="text/css">
	.st0{fill:none;stroke:#DD5959;stroke-width:0.5;stroke-linecap:round;stroke-miterlimit:10;}
</style>
<g id="main">
	<g id="logo">
		<g>
			<path class="st0" d="M47.2,121.5c0.7-0.8,11.2-12.5-1.1-24.4c-9.8-9.4-27.1-3.7-34.4,5.3c-14.5,17.8-13.8,42.5,3.8,56.2
				c24.6,19.1,54.1,12,70.5-5.6c12.1-12.9,37.2-44.1,57.2-67.6c16.4-19.3,23.9-43.2,0.9-69.8C128.4-2.4,89-3.5,73.4,14.3
				c-19.4,22.2-20.7,46.9-1.2,69.8c32.2,37.6,41.8,51.2,57.9,68.8c21.1,23.1,49.7,21.9,70.5,5.3c23.3-18.6,14.7-46.1,0.6-57.9
				c-13.6-11.4-38-14.2-52.9,4.2c-23.5,29.1-56.2,66.2-56.2,66.2"/>
			<line class="st0" x1="113.2" y1="171.3" x2="144.7" y2="134.4"/>
		</g>
	</g>
</g>
</svg>
